<?xml version="1.0" encoding="utf-8"?>
<!-- Generator: Adobe Illustrator 27.5.0, SVG Export Plug-In . SVG Version: 6.00 Build 0)  -->
<svg version="1.1" xmlns="http://www.w3.org/2000/svg" xmlns:xlink="http://www.w3.org/1999/xlink" x="0px" y="0px"
	 viewBox="0 0 500 500" style="enable-background:new 0 0 500 500;" xml:space="preserve">
<g id="Floor">
	<path id="Floor_24_" style="fill:#F5F5F5;" d="M95.179,420.245c82.502,45.712,216.264,45.714,298.764,0.001
		c82.502-45.714,82.502-119.828,0-165.54c-82.502-45.713-216.264-45.713-298.765-0.001
		C12.676,300.417,12.676,374.533,95.179,420.245z"/>
</g>
<g id="Plants">
	<g id="XMLID_3806_">
		<g id="XMLID_3811_">
			<path id="XMLID_3815_" style="fill:#27DEBF;" d="M398.743,252.088c0.581-7.218,6.144-19.532,14.388-28.301
				c8.244-8.77,21.43-12.995,29.565-9.46c7.577,3.292,5.911,13.445-4.087,19.458c-9.997,6.013-24.891,13.379-29.989,24.753
				l-9.877,13.664V252.088z"/>
			<path id="XMLID_3814_" style="opacity:0.1;" d="M398.743,252.088c0.581-7.218,6.144-19.532,14.388-28.301
				c8.244-8.77,21.43-12.995,29.565-9.46c7.577,3.292,5.911,13.445-4.087,19.458c-9.997,6.013-24.891,13.379-29.989,24.753
				l-9.877,13.664V252.088z"/>
			<g id="XMLID_3370_">
				<path id="XMLID_3577_" style="fill:#FFFFFF;" d="M397.702,261.542c-0.052,0-0.105-0.008-0.157-0.025
					c-0.262-0.087-0.404-0.37-0.317-0.632c8.111-24.486,31.123-40.896,40.673-42.465c0.267-0.047,0.53,0.139,0.574,0.412
					c0.045,0.272-0.14,0.529-0.412,0.574c-9.348,1.535-31.897,17.678-39.886,41.793
					C398.108,261.409,397.912,261.542,397.702,261.542z"/>
			</g>
		</g>
		<g id="XMLID_3807_">
			<path id="XMLID_3810_" style="fill:#27DEBF;" d="M399.822,281.887c1.486-3.964,6.98-10.261,15.44-15.147
				c9.359-5.405,20.807-7.316,23.776-11.87c3.568-5.471-0.82-11.263-10.019-10.866c-9.199,0.397-26.213,11.537-30.277,30.041
				L399.822,281.887z"/>
		</g>
		<g id="XMLID_3374_">
			<path id="XMLID_3458_" style="fill:#FFFFFF;" d="M399.399,274.371c-0.076,0-0.152-0.017-0.225-0.053
				c-0.247-0.124-0.346-0.425-0.223-0.672c7.919-15.765,24.632-23.134,33.259-25.003c0.271-0.061,0.535,0.114,0.594,0.383
				c0.059,0.27-0.112,0.536-0.383,0.594c-8.453,1.832-24.826,9.048-32.575,24.476C399.758,274.271,399.581,274.371,399.399,274.371z
				"/>
		</g>
	</g>
	<g id="XMLID_3380_">
		<g id="XMLID_3820_">
			<path id="XMLID_3824_" style="fill:#E0E0E0;" d="M109.766,303.85l8.124-4.691c0,0,4.297-19.131-2.1-43.426
				c-6.397-24.295-24.818-42.471-34.459-38.656c-9.641,3.815-9.359,10.996-4.062,18.286c4.399,6.053,18.669,20.602,25.536,37.421
				C109.673,289.602,109.766,303.85,109.766,303.85z"/>
			<g id="XMLID_3821_">
				<path id="XMLID_3822_" style="fill:#FFFFFF;" d="M114.094,301.851c-0.023,0-0.047-0.002-0.069-0.005
					c-0.274-0.038-0.465-0.29-0.427-0.564c5.559-39.999-19.239-72.338-30.518-79.085c-0.237-0.142-0.314-0.449-0.172-0.686
					c0.143-0.237,0.45-0.314,0.686-0.172c11.445,6.847,36.618,39.616,30.994,80.081C114.554,301.67,114.34,301.851,114.094,301.851z
					"/>
			</g>
		</g>
		<g id="XMLID_3816_">
			<path id="XMLID_3819_" style="fill:#EBEBEB;" d="M109.766,303.85l-12.186,7.036c0,0-2.941-1.699-8.124-2.345
				c-5.183-0.647-8.637-5.646-8.124-9.38c0.345-2.517,1.148-5.389,0.764-7.932c-0.345-2.282-2.553-4.334-4.612-5.13
				c-1.711-0.662-3.589-0.693-5.421-0.777c-2.93-0.135-5.97-0.466-8.47-2s-4.289-4.591-3.488-7.413
				c0.425-1.497,1.491-2.717,2.549-3.858c1.059-1.141,2.17-2.299,2.726-3.753c1.081-2.827-0.825-4.619-3.096-5.931
				c-7.973-4.604-11.6-8.234-8.726-11.713c2.874-3.479,10.798-4.997,18.907-0.743c8.109,4.254,14.835-0.307,20.189,0.59
				c8.374,1.402,8.872,7.325,7.831,12.467c-1.041,5.143,9.308,7.32,11.912,13.47C114.292,280.909,115.868,295.636,109.766,303.85z"
				/>
			<g id="XMLID_3817_">
				<path id="XMLID_3818_" style="fill:#FFFFFF;" d="M105.703,306.695c-0.269,0-0.49-0.213-0.5-0.483
					c-0.97-28.553-37.594-53.45-46.224-54.873c-0.273-0.045-0.457-0.302-0.412-0.574c0.045-0.274,0.302-0.462,0.574-0.412
					c9.09,1.498,46.055,26.208,47.062,55.826c0.009,0.275-0.207,0.507-0.483,0.517C105.714,306.695,105.709,306.695,105.703,306.695
					z"/>
			</g>
		</g>
	</g>
</g>
<g id="Character">
	<g id="Character_12_">
		<g>
			<g id="XMLID_3771_">
				<path id="XMLID_3772_" style="fill:#FFA8A7;" d="M431.158,170.72c-1.78-0.335-3.254-1.182-5.798-1.453
					c-2.24-0.239-3.16-0.377-5.003-1.381c-1.998-1.089-6.186-6.155-9.608-11.281c-4.037-6.048-6.966-14.991-7.685-18.998
					c-1.459-8.134-1.736-20.013-2.298-24.769c-0.562-4.756-2.549-6.158-5.14-7.239c-3.043-1.27-6.232,0.571-6.264,7.474
					c-0.032,6.904,1.183,19.079,3.544,28.191c1.144,4.416,3.581,11.312,8.738,19.104c3.603,5.443,7.319,9.044,12.048,13.543
					c1.289,1.226,1.942,2.455,4.124,5.083c0.88,1.06,1.812,2.249,2.967,2.996c1.467,0.949,3.048,1.736,4.728,2.23
					c2.115,0.622,4.396,0.766,6.531,0.215c1.174-0.303,2.308-0.823,3.218-1.626c0.91-0.802,1.582-1.903,1.749-3.104
					c0.034-0.244,0.046-0.5-0.046-0.728c-0.165-0.412-0.611-0.625-1.02-0.8c-2.283-0.974-4.891-1.682-7.05-2.886
					c-1.824-1.017-2.972-1.988-2.578-2.128c0.394-0.14,1.425,0.532,3.245,0.589c1.739,0.054,3.478-0.928,3.432-1.906
					C432.948,170.868,432.938,171.055,431.158,170.72z"/>
			</g>
			<path id="XMLID_1163_" style="fill:#27DEBF;" d="M390.336,135.257c0,0-1.656-13.228-2.083-20.574
				c-0.427-7.346,1.812-9.488,4.574-11.322c6.092-0.473,9.587,5.902,10.61,10.149c1.023,4.247,1.51,14.843,1.51,21.732
				c0,6.889,9.681,26.721,9.681,26.721s-4.861,2.248-6.323,6.655c0,0-7.73-9.122-10.603-13.768
				C392.442,146.344,391.03,141.113,390.336,135.257z"/>
			<path id="XMLID_1054_" style="opacity:0.1;" d="M390.336,135.257c0,0-1.656-13.228-2.083-20.574
				c-0.427-7.346,1.812-9.488,4.574-11.322c6.092-0.473,9.587,5.902,10.61,10.149c1.023,4.247,1.51,14.843,1.51,21.732
				c0,6.889,9.681,26.721,9.681,26.721s-4.861,2.248-6.323,6.655c0,0-7.73-9.122-10.603-13.768
				C392.442,146.344,391.03,141.113,390.336,135.257z"/>
		</g>
		<g id="XMLID_3780_">
			<g>
				
					<rect id="XMLID_3801_" x="365.003" y="275.673" transform="matrix(-1 -1.224647e-16 1.224647e-16 -1 738.2918 565.5312)" style="fill:#FFA8A7;" width="8.286" height="14.184"/>
				<polygon id="XMLID_3800_" style="fill:#FFA8A7;" points="392.022,279.553 400.303,279.838 400.718,264.827 392.437,264.542 				
					"/>
				<path id="XMLID_3782_" style="fill:#263238;" d="M373.289,285.768v-1.185c0.793,0.345,2.635,7.373,5.922,10.372
					c2.613,2.384,6.179,5.137,7.086,7.795c0.943,2.764-4.965,4.29-7.407,3.858c-2.837-0.502-7.755-2.5-8.989-4.352
					c-1.234-1.852-1.812-4.584-2.815-5.941c-1.003-1.357-3.315-2.872-3.858-4.443c-0.298-0.863,0.056-2.753,0.474-4.35
					c0.384-1.465,0.8-3.076,1.301-2.938c0.001,0.179,0,0.903,0,0.903c0.602,0.667,2.266,1.328,4.143,1.4
					C370.358,286.933,373.299,286.692,373.289,285.768z"/>
				<path id="XMLID_3781_" style="fill:#263238;" d="M400.391,277.283c0.43,0.015,0.78,0.622,1.729,1.649
					c1.147,1.241,3.023,2.581,4.874,3.507c3.103,1.553,9.135,3.942,11.865,5.172c1.706,0.768,1.626,2.828-0.137,4.001
					c-1.763,1.172-6.019,2.017-11.13,0.874c-2.784-0.623-6.408-3.194-8.702-3.055c-2.294,0.139-6.586,0.106-8.28-1.061
					c-1.693-1.167-1.016-3.66-0.537-5.802c0.522-2.338,1.27-5.915,2.044-5.755l-0.025,0.735c0.996,1.508,6.068,2.124,8.256,1.014
					L400.391,277.283z"/>
				<path id="XMLID_3799_" style="fill:#263238;" d="M365.547,163.235c0,7.912-0.008,57.311-0.008,57.311
					c-0.193,2.277-1.874,6.22-2.332,15.913c-0.561,11.882-1.046,44.448-1.046,44.448s6.185,3.999,11.67,0.148
					c0,0,7.354-46.699,8.839-58.471c1.296-10.273,3.494-38.183,3.494-38.183l4.959,42.046c0,0-1.351,7.723-1.648,13.173
					c-0.297,5.451,0.05,33.668,0.05,33.668s6.548,3.765,11.352,1.198c0,0,5.677-43.587,6.531-48.51
					c0.855-4.923-3.108-62.74-3.108-62.74H365.547z"/>
				<path id="XMLID_3777_" d="M386.164,184.4c0,0,6.622-1.865,11.538-6.615c0,0-2.226,4.168-8.847,8.048l0.141,22.579L386.164,184.4
					z"/>
			</g>
			<g>
				<path id="XMLID_3798_" style="fill:#27DEBF;" d="M373.507,105.997c-1.115,0.198-2.407,0.391-3.42,0.788
					c-2.272,0.892-3.313,3.694-3.859,6.169c-0.392,1.778-0.68,3.898-0.68,6.291v16.234v27.755c5.81,6.321,26.066,9.266,38.754,0
					c0,0-0.249-38.855-1.199-45.238c-1.651-11.09-6.96-15.045-12.292-14.632l-12.79,1.83L373.507,105.997z"/>
				<path id="XMLID_1048_" style="fill:#37474F;" d="M378.408,125.167c0,0,6.938-0.281,9.793-1.39v-1.39
					c-2.855,1.109-9.793,1.39-9.793,1.39V125.167z"/>
				<g>
					<g id="XMLID_1050_">
						<path id="XMLID_18521_" style="fill:#27DEBF;" d="M390.126,111.598l-12.16-8.928l-0.047-2.198c0,0-2.574,0.385-3.201,5.31
							c1.71,3.973,4.741,7.306,9.293,9.9l2.521-4.495L390.126,111.598z"/>
						<path id="XMLID_1049_" style="opacity:0.1;" d="M390.126,111.598l-12.16-8.928l-0.047-2.198c0,0-2.574,0.385-3.201,5.31
							c1.71,3.973,4.741,7.306,9.293,9.9l2.521-4.495L390.126,111.598z"/>
					</g>
					<g id="XMLID_1051_">
						<path id="XMLID_18520_" style="fill:#27DEBF;" d="M390.803,100.998c0,0,2.731,0.384,3.934,2.369
							c1.201,1.981,0.926,9.556,0.926,9.556l-3.197-3.661l-2.341,2.335c0.256-2.524,0.688-6.772,0.688-6.772L390.803,100.998z"/>
						<path id="XMLID_1047_" style="opacity:0.1;" d="M390.803,100.998c0,0,2.731,0.384,3.934,2.369
							c1.201,1.981,0.926,9.556,0.926,9.556l-3.197-3.661l-2.341,2.335c0.256-2.524,0.688-6.772,0.688-6.772L390.803,100.998z"/>
					</g>
				</g>
			</g>
			<g id="XMLID_3783_">
				<g id="XMLID_3791_">
					<path id="XMLID_3797_" style="fill:#263238;" d="M372.838,84.999c0,0,1.906,8.955,2.67,10.427
						c0.764,1.471,2.344,1.89,2.344,1.89l-0.133-6.3L372.838,84.999z"/>
					<path id="XMLID_3796_" style="fill:#263238;" d="M375.23,72.17c0,0-2.053-0.352-3.653,1.285
						c-1.569,1.604-0.693,6.626,1.261,11.545l3.591,0.412L375.23,72.17z"/>
					<path id="XMLID_3795_" style="fill:#FFA8A7;" d="M377.505,85.415c-0.72,0.43-1.747-0.953-2.635-1.882
						c-0.888-0.929-3.786-2.198-5.232,0.848c-1.473,3.105,1.276,7.207,3.558,7.923c3.932,1.234,4.523-1.288,4.523-1.288l0.3,14.185
						c0,0,5.134,5.451,12.106,6.397l0.688-6.772l-0.011-4.317c0,0,3.563,0.541,5.301,0.272c2.892-0.447,4.711-2.729,5.589-5.859
						c1.409-5.028,1.944-9.088,0.749-18.977c-1.31-10.839-13.917-10.951-20.724-6.667C374.91,73.563,377.505,85.415,377.505,85.415z
						"/>
					<path id="XMLID_3794_" style="fill:#263238;" d="M377.506,86.626c-0.362,0.007-1.739-2.278-2.635-3.093
						c-1.242-1.13,0.36-11.362,0.36-11.362c1.49-7.025,13.66-8.008,20.46-5.772c3.527,1.093,5.814,2.681,5.678,5.666
						c-0.453,1.948-4.76,3.006-6.397,3.205c-4.607,0.561-11.689-0.674-12.67-0.808c-1.336-0.183-1.703,0.238-2.423,3.775
						C379.247,81.34,378.723,86.603,377.506,86.626z"/>
					<path id="XMLID_3793_" style="fill:#263238;" d="M375.237,72.966l-4.353-2.337c0.618-1.247,2.093-1.735,3.295-1.09
						C375.382,70.185,375.855,71.719,375.237,72.966z"/>
					<path id="XMLID_3792_" style="fill:#F28F8F;" d="M390.803,100.509c0,0-6.456-1.3-8.713-2.5c-1.51-0.803-2.755-2.195-3.12-3.087
						c0,0,0.423,1.915,1.772,3.641c1.651,2.11,10.06,3.664,10.06,3.664L390.803,100.509z"/>
				</g>
				<g id="XMLID_3784_">
					<path id="XMLID_3790_" style="fill:#263238;" d="M389.661,84.987c0,0.743-0.579,1.343-1.294,1.341
						c-0.715-0.002-1.294-0.605-1.294-1.348c0-0.742,0.579-1.342,1.294-1.341C389.081,83.641,389.661,84.245,389.661,84.987z"/>
					<path id="XMLID_3789_" style="fill:#263238;" d="M388.289,80.103l-2.768,1.528c-0.408-0.795-0.119-1.782,0.645-2.203
						C386.93,79.005,387.881,79.308,388.289,80.103z"/>
					<path id="XMLID_3788_" style="fill:#F28F8F;" d="M390.218,92.737l2.953,1.108c-0.292,0.847-1.19,1.285-2.006,0.979
						C390.35,94.518,389.926,93.584,390.218,92.737z"/>
					<path id="XMLID_3787_" style="fill:#263238;" d="M401.197,81.18l-2.524-1.944c0.515-0.723,1.497-0.873,2.194-0.337
						C401.564,79.436,401.712,80.457,401.197,81.18z"/>
					<path id="XMLID_3786_" style="fill:#263238;" d="M400.42,84.619c0,0.742-0.579,1.343-1.294,1.34
						c-0.714-0.002-1.294-0.605-1.294-1.348c0-0.742,0.579-1.343,1.294-1.341C399.841,83.273,400.42,83.876,400.42,84.619z"/>
					<polygon id="XMLID_3785_" style="fill:#F28F8F;" points="393.42,82.205 393.845,89.985 397.907,88.601 					"/>
				</g>
			</g>
		</g>
		<g>
			<path id="XMLID_3362_" style="fill:#263238;" d="M380.928,76.872c0,0,12.858,7.181,21.804,1.706
				c8.946-5.475-2.644-10.163-2.644-10.163L380.928,76.872z"/>
			<g id="XMLID_3340_">
				<g id="XMLID_3335_">
					<path id="XMLID_3331_" style="fill:#27DEBF;" d="M399.996,56.162c-7.66-1.195-15.962-1.555-25.612,3.13
						s-11.751,10.925-11.751,10.925s9.815,2.675,17.81,0.38C388.437,68.303,399.996,56.162,399.996,56.162z"/>
					<path id="XMLID_3334_" style="opacity:0.4;fill:#FFFFFF;" d="M399.996,56.162c-7.66-1.195-15.962-1.555-25.612,3.13
						s-11.751,10.925-11.751,10.925s9.815,2.675,17.81,0.38C388.437,68.303,399.996,56.162,399.996,56.162z"/>
				</g>
				<path id="XMLID_3333_" style="fill:#27DEBF;" d="M368.003,73.181c0,0-4.919-1.731-5.37-2.964c0,0,5.036,0.176,11.422-2.146
					c6.386-2.322,13.027-9.34,20.219-11.315c7.192-1.975,10.253,1.31,10.253,1.31s-1.595,5.317-4.08,8.722
					c0,0-2.224,5.123-10.69,7.284C381.291,76.232,368.003,73.181,368.003,73.181z"/>
				<path id="XMLID_3282_" style="fill:#37474F;" d="M368.003,73.181l0.402,1.345c0.248,0.83,1.046,1.71,1.882,1.939
					c2.889,0.793,10.192,2.431,19.675-0.487c5.944-1.829,8.625-3.684,9.695-4.965c1.049-1.256,1.121-2.057,0.993-2.896l-0.203-1.33
					c0,0-1.838,2.787-11.559,5.883C379.168,75.768,368.003,73.181,368.003,73.181z"/>
				<path id="XMLID_3336_" style="fill:#FAFAFA;" d="M395.018,59.527c-0.076,1.513-1.662,4.461-3.759,3.421c0,0,0,2.233,0.003,3.777
					c0.004,2.351,1.385,2.986,3.616,2.245c2.407-0.799,3.814-2.912,3.889-5.261c0.023-0.718,0.001-3.253,0.001-3.253
					C397.119,62.928,394.985,60.108,395.018,59.527z"/>
			</g>
		</g>
	</g>
	<g id="Vault">
		<path id="XMLID_3430_" style="fill:#37474F;" d="M240.03,100.479L122.768,168.18c-2.392,1.381-4.33,4.739-4.33,7.5v130.713
			c0,2.761,1.939,6.119,4.33,7.5l117.264,67.702c2.391,1.381,6.269,1.381,8.66,0l117.264-67.702c2.392-1.381,4.33-4.739,4.33-7.5
			V175.68c0-2.761-1.939-6.119-4.33-7.5l-117.266-67.702C246.299,99.098,242.422,99.098,240.03,100.479z"/>
		<path id="XMLID_3587_" style="fill:#263238;" d="M244.365,241.923v140.71c-1.57,0-3.14-0.35-4.33-1.04l-117.27-67.7
			c-2.39-1.38-4.33-4.74-4.33-7.5v-130.71c0-2.59,1.71-5.7,3.89-7.22c-1.94,1.39-1.79,3.43,0.44,4.72l117.27,67.7
			C241.235,241.573,242.795,241.923,244.365,241.923z"/>
		<path id="XMLID_3406_" style="fill:#455A64;" d="M365.956,168.18l-117.266-67.702c-2.392-1.381-6.269-1.381-8.66,0L122.768,168.18
			c-2.392,1.381-2.392,3.619,0,5l117.264,67.702c2.391,1.381,6.269,1.381,8.66,0l117.264-67.702
			C368.348,171.8,368.348,169.561,365.956,168.18z"/>
		<path id="XMLID_3329_" style="fill:#263238;" d="M254.65,246.823l105.345-60.821c1.196-0.69,2.165-0.131,2.165,1.25l0.001,116.952
			c0,1.381-0.969,3.06-2.165,3.75l-105.345,60.821c-1.196,0.69-2.165,0.131-2.165-1.25l-0.001-116.952
			C252.485,249.192,253.455,247.513,254.65,246.823z"/>
		<path id="XMLID_3431_" style="fill:#37474F;" d="M254.485,250.573c0-0.667,0.588-1.685,1.164-2.018l104.505-60.336l0.007,115.983
			c0,0.667-0.588,1.685-1.164,2.018l-104.505,60.336L254.485,250.573z"/>
		<g id="XMLID_3620_">
			<g id="XMLID_3617_">
				<g id="XMLID_3588_">
					<path id="XMLID_3434_" style="fill:#455A64;" d="M252.86,257.229l22.869-13.195c0.464-0.268,1.036-0.268,1.5,0l3.706,2.139
						l-24.012,13.402L252.86,257.229z"/>
					<path id="XMLID_3584_" style="fill:#263238;" d="M281.295,247.003v15.762c0,0.828-0.582,1.836-1.299,2.25l-23.073,13.321
						v-18.762l23.073-13.321C280.713,245.838,281.295,246.174,281.295,247.003z"/>
					<polygon id="XMLID_3585_" points="252.86,257.229 256.923,259.574 256.923,278.336 252.861,275.991 					"/>
				</g>
				<path id="XMLID_3616_" style="fill:#455A64;" d="M266.703,261.095c1.122-0.648,2.031-0.123,2.031,1.172
					c0,1.295-0.909,2.87-2.031,3.518s-2.031,0.123-2.031-1.172C264.672,263.318,265.581,261.743,266.703,261.095z"/>
				<path id="XMLID_3618_" style="fill:#455A64;" d="M274.826,256.405c1.122-0.648,2.031-0.123,2.031,1.172
					c0,1.295-0.909,2.87-2.031,3.518c-1.122,0.648-2.031,0.123-2.031-1.172C272.795,258.628,273.704,257.053,274.826,256.405z"/>
			</g>
			<g id="XMLID_3619_">
				<path id="XMLID_3429_" style="fill:#455A64;" d="M252.485,257.454l-5.624,3.247c-1.546,0.893-3.451,0.893-4.997,0.001
					l-4.115-2.372c-0.464-0.267-1.035-0.267-1.498,0l-3.677,2.119l9.291,4.945c1.547,0.893,3.454,0.893,5.001-0.001l9.682-5.593
					L252.485,257.454z"/>
				<path id="XMLID_3432_" style="fill:#37474F;" d="M233.474,279.311l8.391,4.844c1.547,0.893,3.454,0.893,5.001-0.001l9.682-5.593
					v-18.762l-9.682,5.593c-1.547,0.894-3.454,0.894-5.001,0.001l-8.391-4.844c-0.717-0.414-1.299-0.078-1.299,0.75v15.762
					C232.174,277.89,232.756,278.897,233.474,279.311z"/>
				<path id="XMLID_3586_" style="fill:#263238;" d="M244.39,284.823c0.855-0.004,1.71-0.226,2.476-0.669l9.682-5.593v-18.762
					l-9.682,5.594c-0.766,0.443-1.62,0.665-2.476,0.669V284.823z"/>
			</g>
		</g>
		<g id="XMLID_3622_">
			<g id="XMLID_3627_">
				<g id="XMLID_3630_">
					<path id="XMLID_3633_" style="fill:#455A64;" d="M252.86,336.966l22.869-13.195c0.464-0.268,1.036-0.268,1.5,0l3.706,2.139
						l-24.012,13.401L252.86,336.966z"/>
					<path id="XMLID_3632_" style="fill:#263238;" d="M281.295,326.74v15.762c0,0.828-0.582,1.836-1.299,2.25l-23.073,13.321
						v-18.762l23.073-13.321C280.713,325.575,281.295,325.911,281.295,326.74z"/>
					<polygon id="XMLID_3631_" points="252.86,336.966 256.923,339.311 256.923,358.073 252.861,355.728 					"/>
				</g>
				<path id="XMLID_3629_" style="fill:#455A64;" d="M266.703,340.832c1.122-0.648,2.031-0.123,2.031,1.172
					c0,1.295-0.909,2.87-2.031,3.518s-2.031,0.123-2.031-1.173C264.672,343.055,265.581,341.48,266.703,340.832z"/>
				<path id="XMLID_3628_" style="fill:#455A64;" d="M274.826,336.142c1.122-0.648,2.031-0.123,2.031,1.173
					c0,1.295-0.909,2.87-2.031,3.518c-1.122,0.648-2.031,0.123-2.031-1.172C272.795,338.365,273.704,336.79,274.826,336.142z"/>
			</g>
			<g id="XMLID_3623_">
				<path id="XMLID_3626_" style="fill:#455A64;" d="M252.485,337.191l-5.624,3.247c-1.546,0.892-3.451,0.893-4.997,0.001
					l-4.115-2.372c-0.464-0.267-1.035-0.267-1.498,0l-3.677,2.119l9.291,4.945c1.547,0.893,3.454,0.893,5.001-0.001l9.682-5.593
					L252.485,337.191z"/>
				<path id="XMLID_3625_" style="fill:#37474F;" d="M233.474,359.048l8.391,4.844c1.547,0.893,3.454,0.893,5.001-0.001l9.682-5.593
					v-18.762l-9.682,5.593c-1.547,0.894-3.454,0.894-5.001,0.001l-8.391-4.844c-0.717-0.414-1.299-0.078-1.299,0.75v15.762
					C232.174,357.626,232.756,358.634,233.474,359.048z"/>
				<path id="XMLID_3624_" style="fill:#263238;" d="M244.39,364.56c0.855-0.004,1.71-0.226,2.476-0.669l9.682-5.593v-18.762
					l-9.682,5.593c-0.766,0.443-1.62,0.665-2.476,0.669V364.56z"/>
			</g>
		</g>
		<g id="XMLID_3397_">
			<path id="XMLID_3637_" style="fill:#263238;" d="M323.719,260.935l0.685-1.188l-4.129-2.384c-0.017-0.01-0.035-0.021-0.053-0.031
				l-0.079-0.046l-0.002,0.003c-3.299-1.843-7.823-1.546-12.817,1.337c-10.095,5.829-18.279,20.003-18.279,31.66
				c0,5.722,1.975,9.768,5.176,11.721l-0.003,0.005l0.123,0.071c0.039,0.023,0.078,0.046,0.117,0.068l4.131,2.387l0.695-1.206
				c2.426-0.026,5.154-0.827,8.039-2.492c10.095-5.829,18.279-20.003,18.279-31.66C325.602,265.829,324.923,263.054,323.719,260.935
				z"/>
			
				<ellipse id="XMLID_3400_" transform="matrix(0.5 -0.866 0.866 0.5 -88.5891 411.4655)" style="fill:#263238;" cx="312.043" cy="282.453" rx="25.851" ry="14.925"/>
			
				<ellipse id="XMLID_3635_" transform="matrix(0.5 -0.866 0.866 0.5 -88.595 410.7075)" style="fill:#37474F;" cx="311.385" cy="282.079" rx="25.851" ry="14.925"/>
			<g id="XMLID_3395_">
				<g id="XMLID_3375_">
					<path id="XMLID_3377_" style="fill:#27DEBF;" d="M313.259,268.001c-0.408,0.15-0.659-0.191-0.56-0.763l0.84-4.854
						c0.099-0.572,0.51-1.156,0.918-1.306c0.408-0.15,0.659,0.191,0.56,0.763l-0.84,4.854
						C314.078,267.267,313.667,267.851,313.259,268.001z"/>
				</g>
				<g id="XMLID_3337_">
					<path id="XMLID_3364_" style="fill:#27DEBF;" d="M306.371,273.251c-0.229,0.084-0.428,0.019-0.525-0.206l-1.359-3.178
						c-0.16-0.374,0.026-1.048,0.414-1.505c0.389-0.457,0.833-0.524,0.993-0.151l1.358,3.178c0.16,0.374-0.025,1.048-0.414,1.505
						C306.685,273.076,306.522,273.196,306.371,273.251z"/>
				</g>
				<g id="XMLID_3310_">
					<path id="XMLID_3311_" style="fill:#27DEBF;" d="M301.109,282.305c-0.076,0.028-0.15,0.04-0.22,0.033l-3.039-0.288
						c-0.357-0.034-0.469-0.54-0.249-1.129c0.22-0.589,0.688-1.039,1.047-1.007l3.039,0.288c0.357,0.034,0.469,0.54,0.249,1.129
						C301.759,281.805,301.421,282.19,301.109,282.305z"/>
				</g>
				<g id="XMLID_3307_">
					<path id="XMLID_3308_" style="fill:#27DEBF;" d="M295.925,294.414c-0.312,0.115-0.553-0.057-0.579-0.457
						c-0.032-0.497,0.282-1.159,0.7-1.478l3.558-2.712c0.42-0.32,0.784-0.175,0.817,0.322c0.032,0.497-0.282,1.159-0.7,1.478
						l-3.558,2.712C296.081,294.341,296.001,294.386,295.925,294.414z"/>
				</g>
				<g id="XMLID_3305_">
					<path id="XMLID_3306_" style="fill:#27DEBF;" d="M299.394,302.53c-0.151,0.055-0.292,0.047-0.4-0.038
						c-0.272-0.215-0.233-0.835,0.086-1.385l2.718-4.676c0.32-0.551,0.8-0.823,1.073-0.608c0.272,0.214,0.233,0.835-0.087,1.385
						l-2.718,4.676C299.874,302.215,299.623,302.445,299.394,302.53z"/>
				</g>
				<g id="XMLID_3303_">
					<path id="XMLID_3304_" style="fill:#27DEBF;" d="M307.155,303.264c-0.408,0.15-0.659-0.191-0.56-0.763l0.84-4.854
						c0.099-0.572,0.51-1.156,0.918-1.306c0.408-0.15,0.659,0.191,0.56,0.763l-0.84,4.854
						C307.975,302.529,307.563,303.114,307.155,303.264z"/>
				</g>
				<g id="XMLID_3301_">
					<path id="XMLID_3302_" style="fill:#27DEBF;" d="M316.242,296.337c-0.229,0.084-0.428,0.019-0.525-0.206l-1.359-3.178
						c-0.16-0.374,0.026-1.048,0.414-1.505c0.389-0.457,0.833-0.525,0.993-0.151l1.359,3.178c0.16,0.374-0.026,1.048-0.414,1.505
						C316.556,296.162,316.392,296.282,316.242,296.337z"/>
				</g>
				<g id="XMLID_3283_">
					<path id="XMLID_3284_" style="fill:#27DEBF;" d="M323.183,284.396c-0.076,0.028-0.15,0.039-0.22,0.033l-3.038-0.288
						c-0.357-0.034-0.469-0.54-0.249-1.13c0.22-0.589,0.688-1.04,1.047-1.007l3.038,0.288c0.357,0.034,0.469,0.54,0.249,1.129
						C323.832,283.896,323.494,284.281,323.183,284.396z"/>
				</g>
				<g id="XMLID_2609_">
					<path id="XMLID_3227_" style="fill:#27DEBF;" d="M321.771,274.711c-0.312,0.115-0.553-0.057-0.579-0.457
						c-0.032-0.497,0.282-1.159,0.7-1.478l3.557-2.712c0.42-0.32,0.785-0.175,0.817,0.322c0.032,0.497-0.282,1.159-0.7,1.478
						l-3.557,2.712C321.926,274.638,321.846,274.683,321.771,274.711z"/>
				</g>
				<g id="XMLID_2387_">
					<path id="XMLID_2395_" style="fill:#27DEBF;" d="M319.14,268.558c-0.151,0.055-0.292,0.047-0.4-0.038
						c-0.272-0.214-0.233-0.835,0.087-1.385l2.718-4.676c0.32-0.55,0.799-0.823,1.072-0.608c0.272,0.214,0.233,0.835-0.087,1.385
						l-2.718,4.676C319.62,268.244,319.369,268.474,319.14,268.558z"/>
				</g>
			</g>
			<path id="XMLID_1044_" style="fill:#263238;" d="M320.251,271.239l-0.004,0.007c-1.738-2.58-5.053-3.092-8.862-0.893
				c-5.609,3.238-10.155,11.113-10.155,17.589c0,4.624,2.323,7.269,5.69,7.234l-0.009,0.015l7.808,0.182l9.834-17.985
				L320.251,271.239z"/>
			<path id="XMLID_2240_" style="fill:#455A64;" d="M318.031,276.854c-4.181,2.414-7.571,8.285-7.571,13.114
				c0,4.828,3.39,6.785,7.571,4.371c4.182-2.414,7.571-8.285,7.571-13.114C325.602,276.397,322.212,274.44,318.031,276.854z"/>
		</g>
		<path id="XMLID_3398_" style="fill:#263238;" d="M354.135,244.127c0.136-3.342-1.594-6.482-4.49-8.155l-13.539-7.817
			c-0.02-0.012-0.039-0.023-0.059-0.034l-0.002-0.001v0c-1.037-0.581-2.46-0.489-4.031,0.418c-3.174,1.832-5.747,6.289-5.747,9.953
			c0,2.048,0.804,3.413,2.067,3.902l-0.001,0.001l0.011,0.003c0.027,0.01,0.056,0.017,0.083,0.026l13.015,4.129
			c2.88,0.914,4.892,3.517,5.05,6.535l1.455,27.817v0c0,1.295,1.05,2.345,2.345,2.345c1.295,0,2.345-1.05,2.345-2.345
			c0,0,0,0,0-0.001L354.135,244.127z"/>
	</g>
	<g id="Character_Arm">
		<g id="XMLID_1043_">
			<path id="XMLID_1042_" style="fill:#FFA8A7;" d="M358.097,118.334c0,0-16.845,25.064-19.674,31.24
				c-0.954,2.084-1.773,3.191,1.65,6.708c3.422,3.517,16.036,14.028,17.222,15.571c1.187,1.543,1.187,3.989,2.136,6.148
				c0.949,2.159-0.142,7.903,0.722,11.443c0.867,3.552,10.134-1.667,10.133-10.708c-0.001-5.08,0.175-8.034-2.922-10.399
				c-3.097-2.366-15.982-17.503-15.982-17.503l11.716-17.674L358.097,118.334z"/>
			<path id="XMLID_1045_" style="fill:#27DEBF;" d="M361.569,138.189c3.989-5.273,10.572-13.081,10.572-13.081
				c3.062-4.268,5.548-15.317,0.709-19.048c-3.279-0.489-6.376-0.399-10.981,5.34c-4.605,5.739-9.153,12.083-13.947,19.129
				c-4.795,7.046-11.192,17.31-11.192,21.041c0,3.731,7.436,9.848,14.147,14.42c0,0,1.182-5.832,7.926-6.629l-6.302-8.809
				C352.501,150.553,357.58,143.461,361.569,138.189z"/>
			<path id="XMLID_1046_" style="opacity:0.05;" d="M361.569,138.189c3.989-5.273,10.572-13.081,10.572-13.081
				c3.062-4.268,5.548-15.317,0.709-19.048c-3.279-0.489-6.376-0.399-10.981,5.34c-4.605,5.739-9.153,12.083-13.947,19.129
				c-4.795,7.046-11.192,17.31-11.192,21.041c0,3.731,7.436,9.848,14.147,14.42c0,0,1.182-5.832,7.926-6.629l-6.302-8.809
				C352.501,150.553,357.58,143.461,361.569,138.189z"/>
		</g>
		<path id="XMLID_1053_" style="fill:#37474F;" d="M362.012,113.842c0,0,2.312,0.057,4.538,2.704l0.175-0.263
			c0.185-0.278,0.146-0.647-0.083-0.89c-1.488-1.574-2.953-2.057-3.679-2.205c-0.278-0.057-0.56,0.068-0.718,0.304L362.012,113.842z
			"/>
		<path id="XMLID_1052_" style="fill:#37474F;" d="M364.128,119.227c-0.909,1.391-2.493,1.965-3.538,1.282
			c-1.045-0.683-1.156-2.364-0.247-3.755c0.909-1.391,2.493-1.965,3.538-1.282C364.926,116.155,365.036,117.836,364.128,119.227z"/>
	</g>
</g>
<g id="Money_1_">
	<g id="Money">
		<g id="XMLID_4714_">
			<g id="XMLID_5426_">
				<g id="XMLID_5458_">
					<polygon id="XMLID_5494_" style="fill:#27DEBF;" points="231.13,368.795 119.508,304.355 63.7,336.576 175.321,401.016 					
						"/>
					<path id="XMLID_5486_" style="opacity:0.15;" d="M69.573,336.576l105.748,61.048l49.935-28.83l-105.747-61.048L69.573,336.576z
						 M72.512,336.576l46.997-27.134l102.81,59.353l-46.997,27.134L72.512,336.576z"/>
					<g id="XMLID_5479_">
						<g id="XMLID_5483_" style="opacity:0.15;">
							<path id="XMLID_3581_" d="M149.5,369.372c-7.606,0-15.414-1.757-21.428-5.229l0,0c-5.857-3.381-9.217-7.994-9.217-12.657
								c0-4.274,2.752-8.218,7.748-11.102c10.666-6.158,28.679-5.778,40.154,0.848c5.857,3.382,9.216,7.995,9.216,12.658
								c0,4.274-2.752,8.218-7.748,11.102C163.149,367.922,156.407,369.372,149.5,369.372z M145.331,336.987
								c-6.728,0-13.288,1.41-18.228,4.262c-4.674,2.698-7.248,6.334-7.248,10.236c0,4.296,3.178,8.594,8.717,11.792l0,0
								c11.199,6.466,28.764,6.848,39.153,0.849c4.674-2.699,7.248-6.334,7.248-10.236c0-4.296-3.177-8.595-8.716-11.793
								C160.382,338.705,152.755,336.987,145.331,336.987z"/>
						</g>
						<g id="XMLID_5480_" style="opacity:0.1;">
							<path id="XMLID_3441_" d="M149.496,365.772c-7.229,0-14.378-1.734-19.616-4.76c-4.708-2.719-7.408-6.19-7.408-9.526
								c0-2.929,2.109-5.76,5.939-7.971c4.368-2.522,10.378-3.912,16.921-3.912c7.229,0,14.378,1.734,19.617,4.76
								c4.709,2.719,7.409,6.191,7.409,9.527c0,2.929-2.109,5.759-5.94,7.97C162.05,364.382,156.041,365.772,149.496,365.772z"/>
						</g>
					</g>
					<g id="XMLID_5469_">
						<path id="XMLID_3444_" style="opacity:0.1;" d="M169.444,389.965l-30.683-17.82l2.458,0.316
							c2.179,0.28,4.405,0.423,6.618,0.423c8.023,0,16.503-2.823,21.347-5.62c5.43-3.133,10.908-8.741,10.908-14.208
							c0-1.856-0.418-3.708-1.241-5.505l-0.657-1.432l33.6,19.506l-3.684,2.131c-0.626,0.359-0.971,0.807-0.971,1.26
							c-0.001,0.455,0.344,0.904,0.97,1.267l3.689,2.126l-30.605,17.556l-3.185-1.835c-1.482-0.856-3.895-0.86-5.381-0.008
							L169.444,389.965z"/>
						<g id="XMLID_5470_">
							<path id="XMLID_3407_" style="fill:#27DEBF;" d="M182.951,377.511c-1.82,0-3.687-0.419-5.123-1.249
								c-1.471-0.849-2.313-2.032-2.313-3.246c0-1.127,0.702-2.152,1.976-2.887c2.56-1.479,6.878-1.393,9.624,0.194
								c1.47,0.849,2.313,2.031,2.313,3.246c0,1.127-0.701,2.152-1.976,2.888C186.231,377.162,184.61,377.511,182.951,377.511z"/>
						</g>
					</g>
					<g id="XMLID_5459_">
						<path id="XMLID_3436_" style="opacity:0.1;" d="M116.713,359.218l-33.536-19.315l3.687-2.126
							c0.623-0.361,0.966-0.81,0.965-1.266c0-0.454-0.343-0.9-0.964-1.258l-3.69-2.138l30.553-17.4l3.184,1.844
							c1.456,0.838,3.917,0.839,5.373-0.001l3.184-1.843l30.676,17.655l-2.486-0.321c-2.169-0.28-4.398-0.423-6.624-0.423
							c-7.27,0-15.952,2.196-21.607,5.464c-7.065,4.078-10.647,8.452-10.647,13.002c0,1.903,0.482,4.934,1.29,6.708L116.713,359.218
							z"/>
						<g id="XMLID_5460_">
							<path id="XMLID_3472_" style="fill:#27DEBF;" d="M112.709,337.118c-1.82,0-3.687-0.419-5.124-1.249l0,0
								c-1.47-0.849-2.313-2.031-2.313-3.246c0-1.127,0.701-2.152,1.976-2.888c2.561-1.479,6.878-1.391,9.624,0.195
								c1.47,0.849,2.313,2.031,2.313,3.246c0,1.127-0.701,2.152-1.976,2.888C115.988,336.77,114.368,337.118,112.709,337.118z"/>
						</g>
					</g>
				</g>
				<g id="XMLID_5447_">
					<polygon id="XMLID_5455_" style="fill:#27DEBF;" points="231.13,368.795 231.13,382.363 175.321,414.585 175.321,401.016 					
						"/>
					<g id="XMLID_3403_" style="opacity:0.4;">
						<polygon id="XMLID_3457_" style="fill:#FFFFFF;" points="231.13,368.795 231.13,382.363 175.321,414.585 175.321,401.016 
													"/>
					</g>
					<g id="XMLID_5448_">
						<polygon id="XMLID_5452_" style="fill:#27DEBF;" points="175.321,404.041 192.943,394.236 175.318,404.863 						"/>
						<polygon id="XMLID_5451_" style="fill:#27DEBF;" points="231.129,375.239 225.253,378.973 231.126,375.924 						"/>
						<polygon id="XMLID_5450_" style="fill:#27DEBF;" points="231.128,378.473 201.76,395.929 231.128,379.47 						"/>
						<polygon id="XMLID_5449_" style="fill:#27DEBF;" points="175.318,407.27 204.691,390.844 175.318,408.336 						"/>
					</g>
				</g>
				<g id="XMLID_5427_">
					<polygon id="XMLID_5444_" style="fill:#27DEBF;" points="175.321,414.585 63.699,350.145 63.7,336.576 175.321,401.016 					
						"/>
					<g id="XMLID_3404_" style="opacity:0.15;">
						<polygon id="XMLID_3475_" points="175.321,414.585 63.699,350.145 63.7,336.576 175.321,401.016 						"/>
					</g>
					<g id="XMLID_5435_">
						<g id="XMLID_5441_" style="opacity:0.3;">
							<polygon id="XMLID_3474_" points="175.321,404.041 169.438,401.016 175.318,404.863 							"/>
						</g>
						<g id="XMLID_5438_" style="opacity:0.3;">
							<polygon id="XMLID_3473_" points="175.318,407.27 145.784,390.763 175.318,408.336 							"/>
						</g>
						<g id="XMLID_5437_" style="opacity:0.3;">
							<polygon id="XMLID_3456_" points="63.699,342.961 84.262,355.231 63.7,343.759 							"/>
						</g>
						<g id="XMLID_5436_" style="opacity:0.3;">
							<polygon id="XMLID_3453_" points="63.699,346.371 75.45,353.535 63.7,347.132 							"/>
						</g>
					</g>
				</g>
			</g>
			<g id="XMLID_4715_">
				<g id="XMLID_5404_">
					<polygon id="XMLID_5423_" style="fill:#FAFAFA;" points="185.042,339.937 127.29,373.287 109.67,363.117 167.418,329.762 					
						"/>
					<polygon id="XMLID_5422_" style="fill:#EBEBEB;" points="109.67,363.117 109.67,377.877 127.29,388.048 127.29,373.287 					
						"/>
					<polygon id="XMLID_5421_" style="fill:#E0E0E0;" points="127.29,388.048 128.321,387.451 127.29,386.856 					"/>
					<polygon id="XMLID_5420_" style="fill:#E0E0E0;" points="185.042,339.937 185.042,342.19 183.093,341.063 					"/>
					<g id="XMLID_5415_" style="opacity:0.3;">
						<polygon id="XMLID_3455_" points="128.321,387.445 128.321,373.886 127.29,373.287 127.29,386.849 						"/>
					</g>
					<g id="XMLID_5409_" style="opacity:0.2;">
						<polygon id="XMLID_3655_" points="128.321,373.886 184.126,341.66 183.093,341.063 127.29,373.287 						"/>
					</g>
					<polygon id="XMLID_5408_" style="fill:#455A64;" points="183.145,338.842 125.384,372.187 123.919,371.339 181.673,337.997 
											"/>
					<polygon id="XMLID_5407_" style="fill:#455A64;" points="170.801,331.72 113.04,365.065 111.575,364.217 169.329,330.876 					
						"/>
					<polygon id="XMLID_5406_" style="fill:#263238;" points="125.384,372.187 125.384,386.948 123.919,386.102 123.919,371.339 
											"/>
					<polygon id="XMLID_5405_" style="fill:#263238;" points="113.04,365.065 113.04,379.822 111.57,378.973 111.575,364.217 					
						"/>
				</g>
			</g>
		</g>
		<g id="XMLID_3438_">
			<g id="XMLID_3665_">
				<g id="XMLID_3718_">
					<polygon id="XMLID_3754_" style="fill:#27DEBF;" points="231.13,352.822 119.508,288.382 63.7,320.603 175.321,385.043 					
						"/>
					<path id="XMLID_3751_" style="opacity:0.15;" d="M69.573,320.603l105.748,61.048l49.935-28.83l-105.747-61.048L69.573,320.603z
						 M72.512,320.603l46.997-27.134l102.81,59.353l-46.997,27.134L72.512,320.603z"/>
					<g id="XMLID_3739_">
						<g id="XMLID_3747_" style="opacity:0.15;">
							<path id="XMLID_3748_" d="M149.5,353.399c-7.606,0-15.414-1.757-21.428-5.23l0,0c-5.857-3.381-9.217-7.994-9.217-12.657
								c0-4.275,2.752-8.218,7.748-11.102c10.666-6.158,28.679-5.778,40.154,0.848c5.857,3.382,9.216,7.995,9.216,12.658
								c0,4.274-2.752,8.218-7.748,11.102C163.149,351.949,156.407,353.399,149.5,353.399z M145.331,321.015
								c-6.728,0-13.288,1.41-18.228,4.262c-4.674,2.698-7.248,6.334-7.248,10.236c0,4.296,3.178,8.594,8.717,11.792l0,0
								c11.199,6.466,28.764,6.848,39.153,0.849c4.674-2.699,7.248-6.334,7.248-10.236c0-4.296-3.177-8.595-8.716-11.793
								C160.382,322.732,152.755,321.015,145.331,321.015z"/>
						</g>
						<g id="XMLID_3740_" style="opacity:0.1;">
							<path id="XMLID_3657_" d="M149.496,349.799c-7.229,0-14.378-1.734-19.616-4.76c-4.708-2.719-7.408-6.19-7.408-9.526
								c0-2.929,2.109-5.76,5.939-7.971c4.368-2.522,10.378-3.912,16.921-3.912c7.229,0,14.378,1.734,19.617,4.76
								c4.709,2.719,7.409,6.191,7.409,9.527c0,2.929-2.109,5.759-5.94,7.97C162.05,348.409,156.041,349.799,149.496,349.799z"/>
						</g>
					</g>
					<g id="XMLID_3729_">
						<path id="XMLID_3737_" style="opacity:0.1;" d="M169.444,373.992l-30.683-17.82l2.458,0.316
							c2.179,0.28,4.405,0.423,6.618,0.423c8.023,0,16.503-2.823,21.347-5.62c5.43-3.133,10.908-8.741,10.908-14.208
							c0-1.857-0.418-3.708-1.241-5.505l-0.657-1.432l33.6,19.506l-3.684,2.131c-0.626,0.359-0.971,0.807-0.971,1.26
							c-0.001,0.455,0.344,0.904,0.97,1.267l3.689,2.126l-30.605,17.556l-3.185-1.835c-1.482-0.856-3.895-0.86-5.381-0.008
							L169.444,373.992z"/>
						<g id="XMLID_3730_">
							<path id="XMLID_3634_" style="fill:#27DEBF;" d="M182.951,361.538c-1.82,0-3.687-0.419-5.123-1.249
								c-1.471-0.849-2.313-2.032-2.313-3.246c0-1.127,0.702-2.152,1.976-2.887c2.56-1.479,6.878-1.393,9.624,0.194
								c1.47,0.849,2.313,2.031,2.313,3.246c0,1.127-0.701,2.152-1.976,2.888C186.231,361.189,184.61,361.538,182.951,361.538z"/>
						</g>
					</g>
					<g id="XMLID_3719_">
						<path id="XMLID_3727_" style="opacity:0.1;" d="M116.713,343.245L83.176,323.93l3.687-2.126
							c0.623-0.361,0.966-0.811,0.965-1.266c0-0.454-0.343-0.9-0.964-1.258l-3.69-2.138l30.553-17.4l3.184,1.844
							c1.456,0.838,3.917,0.839,5.373-0.001l3.184-1.843l30.676,17.655l-2.486-0.321c-2.169-0.28-4.398-0.423-6.624-0.423
							c-7.27,0-15.952,2.196-21.607,5.464c-7.065,4.078-10.647,8.452-10.647,13.002c0,1.903,0.482,4.934,1.29,6.708L116.713,343.245
							z"/>
						<g id="XMLID_3720_">
							<path id="XMLID_3399_" style="fill:#27DEBF;" d="M112.709,321.146c-1.82,0-3.687-0.419-5.124-1.249l0,0
								c-1.47-0.849-2.313-2.031-2.313-3.246c0-1.127,0.701-2.152,1.976-2.888c2.561-1.479,6.878-1.391,9.624,0.195
								c1.47,0.849,2.313,2.031,2.313,3.246c0,1.127-0.701,2.152-1.976,2.888C115.988,320.797,114.368,321.146,112.709,321.146z"/>
						</g>
					</g>
				</g>
				<g id="XMLID_3698_">
					<polygon id="XMLID_3715_" style="fill:#27DEBF;" points="231.13,352.822 231.13,366.39 175.321,398.612 175.321,385.043 					
						"/>
					<g id="XMLID_3712_" style="opacity:0.4;">
						<polygon id="XMLID_3394_" style="fill:#FFFFFF;" points="231.13,352.822 231.13,366.39 175.321,398.612 175.321,385.043 
													"/>
					</g>
					<g id="XMLID_3699_">
						<polygon id="XMLID_3709_" style="fill:#27DEBF;" points="175.321,388.068 192.943,378.263 175.318,388.891 						"/>
						<polygon id="XMLID_3706_" style="fill:#27DEBF;" points="231.129,359.266 225.253,363 231.126,359.951 						"/>
						<polygon id="XMLID_3703_" style="fill:#27DEBF;" points="231.128,362.5 201.76,379.956 231.128,363.498 						"/>
						<polygon id="XMLID_3700_" style="fill:#27DEBF;" points="175.318,391.297 204.691,374.871 175.318,392.363 						"/>
					</g>
				</g>
				<g id="XMLID_3666_">
					<polygon id="XMLID_3695_" style="fill:#27DEBF;" points="175.321,398.612 63.699,334.172 63.7,320.603 175.321,385.043 					
						"/>
					<g id="XMLID_3692_" style="opacity:0.15;">
						<polygon id="XMLID_3393_" points="175.321,398.612 63.699,334.172 63.7,320.603 175.321,385.043 						"/>
					</g>
					<g id="XMLID_3667_">
						<g id="XMLID_3689_" style="opacity:0.3;">
							<polygon id="XMLID_3392_" points="175.321,388.068 169.438,385.043 175.318,388.891 							"/>
						</g>
						<g id="XMLID_3686_" style="opacity:0.3;">
							<polygon id="XMLID_3391_" points="175.318,391.297 145.784,374.79 175.318,392.363 							"/>
						</g>
						<g id="XMLID_3673_" style="opacity:0.3;">
							<polygon id="XMLID_3390_" points="63.699,326.988 84.262,339.258 63.7,327.786 							"/>
						</g>
						<g id="XMLID_3668_" style="opacity:0.3;">
							<polygon id="XMLID_3389_" points="63.699,330.399 75.45,337.562 63.7,331.159 							"/>
						</g>
					</g>
				</g>
			</g>
			<g id="XMLID_3440_">
				<g id="XMLID_3442_">
					<polygon id="XMLID_3662_" style="fill:#FAFAFA;" points="185.042,323.964 127.29,357.314 109.67,347.144 167.418,313.789 					
						"/>
					<polygon id="XMLID_3661_" style="fill:#EBEBEB;" points="109.67,347.144 109.67,361.904 127.29,372.075 127.29,357.314 					
						"/>
					<polygon id="XMLID_3660_" style="fill:#E0E0E0;" points="127.29,372.075 128.321,371.478 127.29,370.883 					"/>
					<polygon id="XMLID_3659_" style="fill:#E0E0E0;" points="185.042,323.964 185.042,326.218 183.093,325.09 					"/>
					<g id="XMLID_3656_" style="opacity:0.3;">
						<polygon id="XMLID_3642_" points="128.321,371.472 128.321,357.913 127.29,357.314 127.29,370.876 						"/>
					</g>
					<g id="XMLID_3578_" style="opacity:0.2;">
						<polygon id="XMLID_4010_" points="128.321,357.913 184.126,325.687 183.093,325.09 127.29,357.314 						"/>
					</g>
					<polygon id="XMLID_3452_" style="fill:#455A64;" points="183.145,322.869 125.384,356.214 123.919,355.366 181.673,322.025 
											"/>
					<polygon id="XMLID_3451_" style="fill:#455A64;" points="170.801,315.747 113.04,349.092 111.575,348.245 169.329,314.903 
											"/>
					<polygon id="XMLID_3448_" style="fill:#263238;" points="125.384,356.214 125.384,370.975 123.919,370.129 123.919,355.366 
											"/>
					<polygon id="XMLID_3443_" style="fill:#263238;" points="113.04,349.092 113.04,363.849 111.57,363 111.575,348.245 					"/>
				</g>
			</g>
		</g>
	</g>
</g>
</svg>
